<svg xmlns="http://www.w3.org/2000/svg" viewBox="0 0 450.14 521.17">
  <defs>
    <clipPath id="a">
      <path fill="none" d="M434.4 355.15c-2.41-18.24-41.33-42.33-55.2-52L335.5 347l-17.07-40.1c-13.13 7.05-34.18 20.39-39.15 35.6-7.37 22.5-5.09 139.5-5.09 139.5h146.29s1.64-35.17 1.64-50.31 15.14-54.85 12.28-76.54Z"/>
    </clipPath>
  </defs>
  <g style="isolation:isolate">
    <circle cx="87.53" cy="91.47" r="79.47" fill="#2c54ac" transform="rotate(-80.98 87.527 91.465)"/>
    <ellipse cx="87.26" cy="91.47" fill="none" stroke="#2c54ac" stroke-miterlimit="10" rx="86.76" ry="79.47"/>
    <path fill="#2c54ac" d="m56.69 159.39 19.88 38.31.55-41.74-20.43 3.43z"/>
    <path fill="#55a3f3" d="m82.63 118.44-1.34-7.87A36.43 36.43 0 0 1 81 97.85a30.34 30.34 0 0 1 3.3-9.34 68.81 68.81 0 0 1 4.78-7.39A88.3 88.3 0 0 0 95 72.56q2.5-4.17 1.49-10.11a9.12 9.12 0 0 0-2.57-5.21 12.19 12.19 0 0 0-4.52-2.82 9.57 9.57 0 0 0-4.75-.5 12.56 12.56 0 0 0-6.86 3.23 16.51 16.51 0 0 0-3.88 5.93 44 44 0 0 0-2.08 7.08l-4 .69L53.39 65a47.43 47.43 0 0 1 2-7.36 37.9 37.9 0 0 1 4.9-9.39 34.55 34.55 0 0 1 9.06-8.72 36 36 0 0 1 14.3-5.33 38.71 38.71 0 0 1 15.71.31 24.29 24.29 0 0 1 12.28 7.08q5 5.32 6.7 15.13 1.39 8.18 0 13.6a30.5 30.5 0 0 1-4 9.47l-5.36 8a52.66 52.66 0 0 0-3.98 6.45 24.21 24.21 0 0 0-2.44 7.67 31 31 0 0 0 .3 9.88l.53 3.12ZM98.35 148a13.31 13.31 0 0 1-9.25-1.41 9.66 9.66 0 0 1-4.72-7.07 10.05 10.05 0 0 1 2.18-8.31 12.71 12.71 0 0 1 8.16-4.6 12.17 12.17 0 0 1 9.06 1.67 10.27 10.27 0 0 1 4.66 7.15 9.87 9.87 0 0 1-2 8.21 12.71 12.71 0 0 1-8.09 4.36Z"/>
    <path fill="#fff" d="m78.59 119.13-1.34-7.87A36.19 36.19 0 0 1 77 98.54a30.49 30.49 0 0 1 3.3-9.35 68.11 68.11 0 0 1 4.78-7.38A91.42 91.42 0 0 0 91 73.25a14.47 14.47 0 0 0 1.49-10.11 9.21 9.21 0 0 0-2.57-5.22 12.28 12.28 0 0 0-4.53-2.82 9.54 9.54 0 0 0-4.74-.49 12.46 12.46 0 0 0-6.86 3.23 16.45 16.45 0 0 0-3.89 5.93 46.09 46.09 0 0 0-2.08 7.08l-18.48-5.12a47.36 47.36 0 0 1 2-7.36A37.56 37.56 0 0 1 56.2 49a34.55 34.55 0 0 1 9.06-8.72 35.68 35.68 0 0 1 14.29-5.33 38.76 38.76 0 0 1 15.72.31 24.33 24.33 0 0 1 12.28 7.08q5 5.32 6.7 15.13 1.38 8.17 0 13.6a30.71 30.71 0 0 1-4 9.47q-2.67 4-5.36 8a54 54 0 0 0-3.89 6.38 24.79 24.79 0 0 0-2.44 7.68 31.06 31.06 0 0 0 .31 9.88l.52 3.11Zm15.72 29.56a13.28 13.28 0 0 1-9.26-1.4 9.67 9.67 0 0 1-4.71-7.07 10.08 10.08 0 0 1 2.17-8.32 12.77 12.77 0 0 1 8.16-4.59 12.19 12.19 0 0 1 9.07 1.69 10.27 10.27 0 0 1 4.65 7.15 9.88 9.88 0 0 1-2 8.2 12.63 12.63 0 0 1-8.08 4.34Z"/>
    <circle cx="373.69" cy="76.07" r="67.04" fill="#55a3f3" transform="rotate(-59.51 373.662 76.081)"/>
    <ellipse cx="373.48" cy="75.99" fill="none" stroke="#55a3f3" stroke-miterlimit="10" rx="67.04" ry="73.19" transform="rotate(-70.81 373.464 75.999)"/>
    <path fill="#55a3f3" d="m405.51 131.73-15.14 33.11-2.22-35.13 17.36 2.02z"/>
    <path fill="#2c54ac" d="m362.31 96.2 1.12-6.64a30.62 30.62 0 0 1 3.32-10.2 26 26 0 0 1 5.25-6.53 58.72 58.72 0 0 1 5.86-4.56 74.74 74.74 0 0 0 7.06-5.19 12.14 12.14 0 0 0 4-7.64 7.73 7.73 0 0 0-.6-4.87 10.43 10.43 0 0 0-2.82-3.5 8 8 0 0 0-3.65-1.71 10.65 10.65 0 0 0-6.36.67 14 14 0 0 0-4.74 3.65 38.73 38.73 0 0 0-3.62 5.06l-3.41-.57-9.86-8.62a39 39 0 0 1 3.6-5.32 31.62 31.62 0 0 1 6.51-6.12 29.28 29.28 0 0 1 9.63-4.44 30.2 30.2 0 0 1 12.87-.28 32.78 32.78 0 0 1 12.4 4.61 20.66 20.66 0 0 1 7.82 9q2.52 5.64 1.13 13.91a28.28 28.28 0 0 1-3.75 10.84 25.9 25.9 0 0 1-5.85 6.43q-3.25 2.48-6.49 4.89a46.9 46.9 0 0 0-4.87 4 20.93 20.93 0 0 0-4.07 5.43 26.28 26.28 0 0 0-2.49 8l-.45 2.63Zm4.32 27.92a11.25 11.25 0 0 1-7-3.69 8.14 8.14 0 0 1-1.79-6.94 8.48 8.48 0 0 1 4-6 10.75 10.75 0 0 1 7.77-1.4 10.27 10.27 0 0 1 6.76 3.84 8.65 8.65 0 0 1 1.72 7 8.28 8.28 0 0 1-3.84 6 10.73 10.73 0 0 1-7.62 1.19Z"/>
    <path fill="#fff" d="M358.9 95.63 360 89a30.61 30.61 0 0 1 3.33-10.2 25.87 25.87 0 0 1 5.22-6.54 58.57 58.57 0 0 1 5.86-4.55 77.92 77.92 0 0 0 7.06-5.19 12.23 12.23 0 0 0 4-7.64 7.72 7.72 0 0 0-.6-4.87A10.24 10.24 0 0 0 382 46.5a8 8 0 0 0-3.64-1.71 10.5 10.5 0 0 0-6.36.67 13.86 13.86 0 0 0-4.74 3.65 37.18 37.18 0 0 0-3.62 5.06L350.41 45a38.4 38.4 0 0 1 3.6-5.32 31.85 31.85 0 0 1 6.5-6.13 29.12 29.12 0 0 1 9.64-4.43 30.34 30.34 0 0 1 12.85-.31 32.9 32.9 0 0 1 12.43 4.61 20.48 20.48 0 0 1 7.82 9q2.53 5.64 1.14 13.91a28.34 28.34 0 0 1-3.75 10.84 26.06 26.06 0 0 1-5.85 6.42q-3.26 2.49-6.5 4.9a45.67 45.67 0 0 0-4.86 4 21 21 0 0 0-4.05 5.51 26.46 26.46 0 0 0-2.5 8l-.44 2.63Zm4.32 27.91a11.12 11.12 0 0 1-7-3.69 8.13 8.13 0 0 1-1.8-6.93 8.5 8.5 0 0 1 4-6 10.69 10.69 0 0 1 7.78-1.4 10.29 10.29 0 0 1 6.76 3.84 8.67 8.67 0 0 1 1.72 7 8.31 8.31 0 0 1-3.84 6 10.68 10.68 0 0 1-7.62 1.18Z"/>
    <circle cx="237.22" cy="153.26" r="49.04" fill="#0a2a6b" transform="rotate(-71.47 237.213 153.262)"/>
    <ellipse cx="236.82" cy="153.56" fill="none" stroke="#0a2a6b" stroke-miterlimit="10" rx="49.04" ry="53.42" transform="rotate(-72.83 236.816 153.56)"/>
    <path fill="#0a2a6b" d="m235.78 199.98-13.92 17.3 1.7-21.07 12.22 3.77z"/>
    <path fill="#55a3f3" d="M231.58 168.17v-4.62a21.25 21.25 0 0 1 1.06-7.28 17.88 17.88 0 0 1 2.77-5 39.69 39.69 0 0 1 3.43-3.76 51.88 51.88 0 0 0 4.16-4.33 8.3 8.3 0 0 0 1.81-5.63 5.3 5.3 0 0 0-1-3.22 7.16 7.16 0 0 0-2.32-2 5.65 5.65 0 0 0-2.66-.73 7.27 7.27 0 0 0-4.22 1.2 9.59 9.59 0 0 0-2.78 3 25.15 25.15 0 0 0-1.83 3.8h-2.38l-7.62-4.67a27 27 0 0 1 1.81-4 21.78 21.78 0 0 1 3.69-4.9 20 20 0 0 1 6-4.12 20.86 20.86 0 0 1 8.66-1.69 22.41 22.41 0 0 1 8.94 1.67 14.06 14.06 0 0 1 6.34 5.2c1.58 2.34 2.37 5.43 2.39 9.27a19.37 19.37 0 0 1-1.28 7.76 17.64 17.64 0 0 1-3.2 5c-1.27 1.37-2.55 2.73-3.82 4.07a31.59 31.59 0 0 0-2.82 3.28 14.17 14.17 0 0 0-2.11 4.14 17.87 17.87 0 0 0-.77 5.67v1.83Zm6.18 18.36a7.66 7.66 0 0 1-5.15-1.68 5.57 5.57 0 0 1-2-4.48 5.84 5.84 0 0 1 2-4.54 7.39 7.39 0 0 1 5.09-1.85 7 7 0 0 1 5 1.81 6 6 0 0 1 2 4.52 5.69 5.69 0 0 1-1.9 4.5 7.31 7.31 0 0 1-5.04 1.72Z"/>
    <path fill="#fff" d="M229.21 168.18v-4.62a21 21 0 0 1 1.06-7.28 17.63 17.63 0 0 1 2.77-5 39.69 39.69 0 0 1 3.43-3.76 51.88 51.88 0 0 0 4.16-4.33 8.35 8.35 0 0 0 1.81-5.63 5.37 5.37 0 0 0-1-3.22 7.15 7.15 0 0 0-2.32-2 5.54 5.54 0 0 0-2.66-.73 7.25 7.25 0 0 0-4.22 1.2 9.55 9.55 0 0 0-2.78 3 26.78 26.78 0 0 0-1.86 3.85l-10-4.67a26 26 0 0 1 1.81-4 21.71 21.71 0 0 1 3.68-4.9 20.1 20.1 0 0 1 6-4.12 20.82 20.82 0 0 1 8.66-1.69 22.41 22.41 0 0 1 8.94 1.67 14 14 0 0 1 6.33 5.2 16.45 16.45 0 0 1 2.4 9.27 19.54 19.54 0 0 1-1.28 7.76 17.64 17.64 0 0 1-3.2 5q-1.92 2.06-3.82 4.07a30.43 30.43 0 0 0-2.82 3.28 14.19 14.19 0 0 0-2.12 4.14 18.18 18.18 0 0 0-.76 5.67v1.83Zm6.17 18.36a7.63 7.63 0 0 1-5.14-1.68 5.58 5.58 0 0 1-2-4.48 5.87 5.87 0 0 1 2-4.54 7.41 7.41 0 0 1 5.09-1.85 7.06 7.06 0 0 1 5 1.81 6 6 0 0 1 2 4.52 5.72 5.72 0 0 1-1.9 4.5 7.34 7.34 0 0 1-5.05 1.72Z"/>
    <path fill="#55a3f3" d="m431.78 201.25-.84-4.14a19.31 19.31 0 0 1-.34-6.72 16 16 0 0 1 1.6-5 35 35 0 0 1 2.41-4 49.35 49.35 0 0 0 3-4.62 7.67 7.67 0 0 0 .62-5.37 4.85 4.85 0 0 0-1.44-2.72 6.49 6.49 0 0 0-2.44-1.42 5 5 0 0 0-2.52-.18 6.55 6.55 0 0 0-3.57 1.82 8.54 8.54 0 0 0-2 3.2 24 24 0 0 0-1 3.77l-9.83-2.41a24.36 24.36 0 0 1 .92-3.92 19.77 19.77 0 0 1 2.43-5 18.19 18.19 0 0 1 4.65-4.76 19 19 0 0 1 7.48-3 20.46 20.46 0 0 1 8.31-.09 12.85 12.85 0 0 1 6.61 3.54 15.14 15.14 0 0 1 3.79 7.9 18 18 0 0 1 .23 7.19 16.32 16.32 0 0 1-2 5.07c-.9 1.45-1.8 2.9-2.7 4.32a28.6 28.6 0 0 0-1.95 3.45 13 13 0 0 0-1.17 4.09 16.6 16.6 0 0 0 .32 5.22l.33 1.64Zm8.79 15.38a7 7 0 0 1-4.92-.6 5.12 5.12 0 0 1-2.61-3.66 5.37 5.37 0 0 1 1-4.43 6.75 6.75 0 0 1 4.24-2.56 6.46 6.46 0 0 1 4.82.73 5.49 5.49 0 0 1 2.58 3.71 5.24 5.24 0 0 1-.91 4.37 6.71 6.71 0 0 1-4.2 2.44ZM24.92 261.41l-1.6-3.5a17.31 17.31 0 0 1-1.7-5.88 14.47 14.47 0 0 1 .37-4.77 33.46 33.46 0 0 1 1.3-4 42.25 42.25 0 0 0 1.71-4.75 6.93 6.93 0 0 0-.57-4.89 4.39 4.39 0 0 0-1.85-2.11 5.77 5.77 0 0 0-2.45-.75 4.65 4.65 0 0 0-2.28.36 6.1 6.1 0 0 0-2.85 2.36 8.11 8.11 0 0 0-1 3.24 22.26 22.26 0 0 0-.08 3.56l-9.23-.09a22.11 22.11 0 0 1 0-3.67 17.75 17.75 0 0 1 1.11-5 16.51 16.51 0 0 1 3.13-5.19 17.27 17.27 0 0 1 6-4.26 18.74 18.74 0 0 1 7.36-1.82 11.83 11.83 0 0 1 6.6 1.77 13.76 13.76 0 0 1 5 6.21 16.06 16.06 0 0 1 1.7 6.33 14.79 14.79 0 0 1-.7 4.92c-.49 1.47-1 2.94-1.5 4.4a27.2 27.2 0 0 0-1 3.45 11.86 11.86 0 0 0-.18 3.88 15.19 15.19 0 0 0 1.37 4.56l.64 1.39Zm11 11.81a6.39 6.39 0 0 1-4.48.5 4.7 4.7 0 0 1-3.08-2.7 4.9 4.9 0 0 1 0-4.15 6.11 6.11 0 0 1 3.23-3.15 5.85 5.85 0 0 1 4.43-.36 4.93 4.93 0 0 1 3 2.76 4.74 4.74 0 0 1 .11 4.06 6.1 6.1 0 0 1-3.21 3.04Zm200.5-234.56.58-3.81a17.55 17.55 0 0 1 1.8-5.85 14.72 14.72 0 0 1 2.92-3.78 32.06 32.06 0 0 1 3.3-2.66 43.52 43.52 0 0 0 4-3 7 7 0 0 0 2.21-4.41 4.53 4.53 0 0 0-.39-2.77 5.78 5.78 0 0 0-1.65-2 4.48 4.48 0 0 0-2.1-.94 6 6 0 0 0-3.63.44 8.07 8.07 0 0 0-2.69 2.12 22.07 22.07 0 0 0-2 2.93l-7.67-5.12a22.83 22.83 0 0 1 2-3.08 18 18 0 0 1 3.65-3.56 16.66 16.66 0 0 1 5.46-2.63 17.2 17.2 0 0 1 7.34-.28 18.73 18.73 0 0 1 7.15 2.5 11.77 11.77 0 0 1 4.56 5.1 13.66 13.66 0 0 1 .78 7.93A15.93 15.93 0 0 1 260 22a14.78 14.78 0 0 1-3.27 3.73c-1.23 1-2.45 1.92-3.67 2.86a26.6 26.6 0 0 0-2.74 2.41 12 12 0 0 0-2.27 3.15 15.29 15.29 0 0 0-1.35 4.56l-.22 1.51Zm2.75 15.9a6.39 6.39 0 0 1-4-2 4.64 4.64 0 0 1-1.09-3.94 4.86 4.86 0 0 1 2.25-3.48 6.13 6.13 0 0 1 4.43-.88 6 6 0 0 1 3.9 2.13 5 5 0 0 1 1.05 4 4.76 4.76 0 0 1-2.14 3.46 6.12 6.12 0 0 1-4.4.71Zm-36.32 27.67-.58-3.07a14.25 14.25 0 0 1-.19-5 12 12 0 0 1 1.23-3.68 27 27 0 0 1 1.82-2.92 37.86 37.86 0 0 0 2.24-3.38 5.67 5.67 0 0 0 .51-4 3.6 3.6 0 0 0-1-2 4.73 4.73 0 0 0-1.79-1.07 3.66 3.66 0 0 0-1.86-.16 4.89 4.89 0 0 0-2.66 1.31 6.31 6.31 0 0 0-1.48 2.35 17.28 17.28 0 0 0-.76 2.78L191 61.55a18.15 18.15 0 0 1 .72-2.89 14.36 14.36 0 0 1 1.85-3.7 13.37 13.37 0 0 1 3.48-3.48 14 14 0 0 1 5.55-2.18 15.14 15.14 0 0 1 6.15 0 9.6 9.6 0 0 1 4.89 2.7 11.14 11.14 0 0 1 2.72 5.87 13 13 0 0 1 .1 5.32 11.82 11.82 0 0 1-1.46 3.72c-.68 1.07-1.36 2.13-2 3.17a23 23 0 0 0-1.47 2.53 9.58 9.58 0 0 0-.9 3 12.08 12.08 0 0 0 .18 3.86l.19 1.23Zm6.35 11.45a5.23 5.23 0 0 1-3.63-.48 3.79 3.79 0 0 1-1.89-2.73 3.94 3.94 0 0 1 .79-3.27 5 5 0 0 1 3.16-1.85 4.78 4.78 0 0 1 3.56.58 4 4 0 0 1 1.87 2.77 3.88 3.88 0 0 1-.71 3.22 5 5 0 0 1-3.15 1.76ZM268.55 82l.56-2.24a10.3 10.3 0 0 1 1.41-3.39 8.74 8.74 0 0 1 2-2.09 19.8 19.8 0 0 1 2.12-1.4 24.93 24.93 0 0 0 2.55-1.58 4.18 4.18 0 0 0 1.57-2.5 2.64 2.64 0 0 0-.08-1.68 3.43 3.43 0 0 0-.87-1.27 2.63 2.63 0 0 0-1.19-.68 3.52 3.52 0 0 0-2.19.06 4.72 4.72 0 0 0-1.72 1.11 13.29 13.29 0 0 0-1.42 1.66L267 64.47a13.82 13.82 0 0 1 1.37-1.72 10.76 10.76 0 0 1 2.38-1.91 9.82 9.82 0 0 1 3.41-1.26 10.35 10.35 0 0 1 4.4.25 11.18 11.18 0 0 1 4.12 1.9 7.11 7.11 0 0 1 2.43 3.3 8.22 8.22 0 0 1 0 4.78 9.59 9.59 0 0 1-1.57 3.6 8.6 8.6 0 0 1-2.17 2q-1.17.77-2.34 1.5a15.34 15.34 0 0 0-1.77 1.24 7.06 7.06 0 0 0-1.53 1.75 8.92 8.92 0 0 0-1.07 2.65l-.22.88Zm.73 9.64a3.84 3.84 0 0 1-2.28-1.45 2.78 2.78 0 0 1-.42-2.42 2.91 2.91 0 0 1 1.54-2 3.73 3.73 0 0 1 2.69-.27 3.53 3.53 0 0 1 2.2 1.5 2.94 2.94 0 0 1 .4 2.43 2.81 2.81 0 0 1-1.47 1.94 3.64 3.64 0 0 1-2.66.26Zm139.27 162.82.42-2.58a11.65 11.65 0 0 1 1.27-4 9.92 9.92 0 0 1 2-2.56 23.33 23.33 0 0 1 2.27-1.79 30.28 30.28 0 0 0 2.73-2 4.73 4.73 0 0 0 1.54-3 3 3 0 0 0-.25-1.89 4 4 0 0 0-1.11-1.36 3.09 3.09 0 0 0-1.42-.65 4.09 4.09 0 0 0-2.47.27 5.45 5.45 0 0 0-1.84 1.44 14.59 14.59 0 0 0-1.4 2l-5.18-3.54a15.93 15.93 0 0 1 1.38-2.08 12.67 12.67 0 0 1 2.52-2.4 11.25 11.25 0 0 1 3.74-1.75 11.69 11.69 0 0 1 5-.14 12.69 12.69 0 0 1 4.85 1.76 8 8 0 0 1 3.07 3.5 9.44 9.44 0 0 1 .48 5.41 11 11 0 0 1-1.44 4.23 10.1 10.1 0 0 1-2.26 2.52l-2.45 1.89a18.07 18.07 0 0 0-1.89 1.57 8.4 8.4 0 0 0-1.57 2.13 10.4 10.4 0 0 0-.95 3.1l-.17 1Zm1.75 10.86a4.31 4.31 0 0 1-2.72-1.42 3.14 3.14 0 0 1-.72-2.69 3.3 3.3 0 0 1 1.56-2.36 4.14 4.14 0 0 1 3-.56 4 4 0 0 1 2.64 1.48 3.39 3.39 0 0 1 .69 2.71 3.24 3.24 0 0 1-1.48 2.35 4.22 4.22 0 0 1-2.97.49Zm-373.66-62.1-.07-2.59a12 12 0 0 1 .5-4.09 10.11 10.11 0 0 1 1.49-2.85 22.59 22.59 0 0 1 1.88-2.15 31.79 31.79 0 0 0 2.28-2.48 4.71 4.71 0 0 0 .94-3.18 3 3 0 0 0-.59-1.79 3.88 3.88 0 0 0-1.32-1.09 3 3 0 0 0-1.5-.38 4.12 4.12 0 0 0-2.35.72 5.39 5.39 0 0 0-1.52 1.73 13.85 13.85 0 0 0-1 2.18l-5.69-2.49a15.07 15.07 0 0 1 1-2.28 12 12 0 0 1 2-2.78 11.14 11.14 0 0 1 3.31-2.41 11.63 11.63 0 0 1 4.83-1.06 12.85 12.85 0 0 1 5 .82 8 8 0 0 1 3.62 2.84 9.31 9.31 0 0 1 1.46 5.17 11 11 0 0 1-.62 4.36 10.19 10.19 0 0 1-1.73 2.86l-2.09 2.32a18.18 18.18 0 0 0-1.54 1.88 7.9 7.9 0 0 0-1.14 2.35 10.18 10.18 0 0 0-.35 3.18v1Zm3.69 10.21a4.35 4.35 0 0 1-2.91-.87 3.18 3.18 0 0 1-1.19-2.49 3.3 3.3 0 0 1 1.09-2.57 4.11 4.11 0 0 1 2.82-1.1 4 4 0 0 1 2.84.95 3.36 3.36 0 0 1 1.17 2.51 3.23 3.23 0 0 1-1 2.55 4.14 4.14 0 0 1-2.82 1.02Z" opacity=".4" style="mix-blend-mode:multiply"/>
    <path fill="#ff8775" d="M245.15 482h36.51l-1.28-75a119.45 119.45 0 0 0-15.18-7Z"/>
    <path fill="#55a3f3" d="M265.2 400a119.45 119.45 0 0 1 15.18 7l-1.1-64.53Z"/>
    <path fill="#ff8775" d="M379.2 303.13c-2.63-1.84-4.36-3.16-4.77-3.83-2.56-4.17-1.88-46.6-1.88-46.6l-42.93 28.37-.41 20.46s-4.48 1.94-10.78 5.33L335.5 347Z"/>
    <path fill="#55a3f3" d="M434.4 355.15c-2.41-18.24-41.33-42.33-55.2-52L335.5 347l-17.07-40.1c-13.13 7.05-34.18 20.39-39.15 35.6-7.37 22.5-5.09 139.5-5.09 139.5h146.29s1.64-35.17 1.64-50.31 15.14-54.85 12.28-76.54Z"/>
    <g fill="none" stroke="#2c54ac" stroke-miterlimit="10" stroke-width=".97" clip-path="url(#a)" opacity=".3">
      <path d="M413.62 283.56v237.61m-28.76-237.61v237.61M356.1 283.56v237.61m-28.75-237.61v237.61m-28.76-237.61v237.61m-37.73-196.66h175.53m-175.53 20.82h175.53m-175.53 20.82h175.53m-175.53 20.82h175.53m-175.53 20.82h175.53m-175.53 20.82h175.53m-175.53 20.82h175.53m-175.53 20.82h175.53m-175.53 20.82h175.53m-175.53 20.82h175.53"/>
    </g>
    <path fill="#ff8775" d="M370.52 243.48a23.72 23.72 0 0 1-.18-6.94 109 109 0 0 1 5.34-26.07 15.34 15.34 0 0 1-11.17-5.2c-2.77-3.2-3.56-7.92-3-12.12a12.69 12.69 0 0 1-9.25 5.81 6.83 6.83 0 0 1-2.74-.19c-2.41-.77-3.77-3.47-3.78-6a19 19 0 0 1 2-7.39c-6 7.1-16.17 9-25.47 9a49.24 49.24 0 0 1-15.53-1.92 27.72 27.72 0 0 1-7.74-3.84c-.53 1.64-1 3.33-1.44 5.12-6.39 27.65.77 68.48 4.65 86.79a12.84 12.84 0 0 0 12.22 10.2c6.53.16 14.93-.21 21.09-2.54 14.32-5.42 29-14.64 41.4-34.86-3.08-2.71-5.56-5.9-6.4-9.85Z"/>
    <path fill="#0a2a6b" d="M362.23 159.25c-21.74-4.35-53-2.26-63.28 29.41a27.72 27.72 0 0 0 7.74 3.84 49.24 49.24 0 0 0 15.53 1.92c9.3-.08 19.46-1.94 25.47-9a19 19 0 0 0-2 7.39c0 2.53 1.37 5.23 3.78 6a6.83 6.83 0 0 0 2.74.19 12.69 12.69 0 0 0 9.25-5.81c-.54 4.2.25 8.92 3 12.12a15.34 15.34 0 0 0 11.17 5.2 109 109 0 0 0-5.34 26.07 23.72 23.72 0 0 0 .18 6.94c.84 4 3.32 7.14 6.35 9.89A140.22 140.22 0 0 0 388.53 229c14.18-38-3.43-65.17-26.3-69.75Z"/>
    <path fill="#ff8775" d="M393.15 238.87A26.89 26.89 0 0 1 383 253.32a11.57 11.57 0 0 1-4.81 2.18c-3.72.52-6.57-2.53-7.14-6.27s.68-7.95 2.35-11.84c2.15-5 5.67-10.38 10.48-11.85 7.74-2.39 11.19 6.32 9.27 13.33Z"/>
    <path fill="#ff8775" d="M374.55 250.91a12 12 0 0 0 4.6-3.21 2.5 2.5 0 0 0 .63-1 1.89 1.89 0 0 0-.59-1.75l-2.34-2.81a1.25 1.25 0 0 1-.35-.66 2.1 2.1 0 0 1 .22-.92c1.6-3.87 3.43-8 6.77-10.48a6.14 6.14 0 0 1 2.9-1.25 3.81 3.81 0 0 1 3.47 1.87 12.24 12.24 0 0 1 1.44 4.07s-.4 8.08-6.31 13.32-10.44 2.82-10.44 2.82Z" style="mix-blend-mode:multiply"/>
    <path fill="#0a2a6b" d="M391.3 234.8a11.33 11.33 0 0 0-2-4.21 3.65 3.65 0 0 0-1.79-1.12 3.21 3.21 0 0 0-2 .2 10 10 0 0 0-3.47 2.77 19.4 19.4 0 0 0-2.53 3.87c-.74 1.37-1.37 2.83-2 4.29a3.59 3.59 0 0 0-.31.82s0 .07.09.19l.35.45c.5.62 1 1.25 1.48 1.89.25.33.48.61.75 1a2.36 2.36 0 0 1 .48 1.43 2.21 2.21 0 0 1-.61 1.35 10.43 10.43 0 0 1-.9.87 11.18 11.18 0 0 1-4.27 2.33 12.34 12.34 0 0 0 3.75-2.86c.51-.57 1.12-1.22 1-1.7s-.61-1-1.15-1.65-1.07-1.19-1.59-1.8l-.41-.48a1.66 1.66 0 0 1-.38-.9 3.55 3.55 0 0 1 .36-1.47c.6-1.49 1.23-3 2-4.44 1.54-2.86 3.61-5.77 6.94-7a4.1 4.1 0 0 1 2.7 0 4.33 4.33 0 0 1 2.08 1.6 10.21 10.21 0 0 1 1.43 4.57Zm-61.85 54.67s11.27-2.79 17-6.63A70.4 70.4 0 0 0 365 265s-6.68 15.57-16.13 22.74A70.77 70.77 0 0 1 329.28 298Zm-20.64-62.74c0 2.5-1.22 4.53-2.73 4.53s-2.74-2-2.74-4.53 1.23-4.53 2.74-4.53 2.73 2.03 2.73 4.53Zm32 6.59c0 2.5-1.22 4.53-2.73 4.53s-2.73-2-2.73-4.53 1.22-4.53 2.73-4.53 2.73 2.03 2.73 4.53Zm-19.19-8.06a67.66 67.66 0 0 0-3.75 6.74 57.26 57.26 0 0 0-2.83 7.07 54.45 54.45 0 0 0-1.83 7.35 52.92 52.92 0 0 0-.76 7.54l-.56-.77a64.52 64.52 0 0 0 11.11 3.08 35.87 35.87 0 0 1-11.67-1.52l-.54-.16v-.61a38.65 38.65 0 0 1 .47-7.89 40.36 40.36 0 0 1 2-7.64 38.67 38.67 0 0 1 3.48-7.07 33.54 33.54 0 0 1 4.88-6.12Zm-3.68-20.93a24 24 0 0 0-21.6 13.67 21.32 21.32 0 0 1 20.56-6.58 58.2 58.2 0 0 0 1.04-7.09ZM352 223.51a19.63 19.63 0 0 0-8.7-7.43 48.53 48.53 0 0 0-11.12-3.27c.55-2.27.9-4.43 1.57-6.67 7.96 3.08 15.34 9.27 18.25 17.37Zm-35.71 44c-3.48-.61-6.49 0-6.73 1.32-.19 1.1 1.57 2.38 4.14 3.13a12.81 12.81 0 0 1 7.4-2.61 11.84 11.84 0 0 0-4.81-1.84Z"/>
    <path fill="#ff4648" d="M321.1 269.35a12.81 12.81 0 0 0-7.4 2.61 16.26 16.26 0 0 0 1.73.41c3.48.62 6.49 0 6.73-1.31.1-.56-.31-1.16-1.06-1.71Z"/>
    <path fill="#ff8775" d="m365 389.93-12.58 16.67L274 344.08s-21.24-7.22-27.2-12.58-19.06-33-24.42-31.67-8.93 19.16-5.66 31.07 8.34 21.75 13.7 24.72 43.19 10.73 43.19 10.73 40.2 50.92 50.63 61.94 46.46 41.4 46.46 41.4l35.44-37.52s-10.72-15.49-21.74-26.51-19.4-15.73-19.4-15.73Z"/>
    <path fill="#0a2a6b" d="M358.63 398.34q4.81-8.62 10.07-17t10.82-16.5c1.9-2.7 3.8-5.39 5.82-8a57.71 57.71 0 0 1 6.63-7.44A75.16 75.16 0 0 1 408 337.87c-2.69 1.9-5.31 3.87-7.8 6a94 94 0 0 0-7.17 6.65c-1.13 1.17-2.21 2.38-3.25 3.61s-2 2.53-3 3.86c-2 2.62-3.82 5.31-5.68 8L370 382.21q-5.58 8.13-11.37 16.13ZM423.1 411c-1.81 2.78-3.76 5.43-5.77 8s-4.09 5.16-6.2 7.68-4.29 5-6.53 7.4-4.52 4.79-7 7c1.8-2.78 3.76-5.43 5.77-8s4.09-5.16 6.2-7.68 4.29-5 6.53-7.39 4.56-4.78 7-7.01Zm-73.75-6.83c2.58 1.84 5.17 3.57 7.77 5.33s5.19 3.57 7.68 5.56a42.15 42.15 0 0 1 6.77 6.78 23.09 23.09 0 0 1 4.31 8.51 37.73 37.73 0 0 0-5.5-7.5 66.45 66.45 0 0 0-6.84-6.24c-2.4-2-4.92-3.84-7.35-5.86a49.46 49.46 0 0 1-6.84-6.58Zm-133.79-85.91a1.48 1.48 0 0 1 1.42-.5 2.46 2.46 0 0 1 1.36.79 12.67 12.67 0 0 1 1.65 2.66c.93 1.88 1.58 3.86 2.34 5.78a113 113 0 0 0 5.11 11.27 25.15 25.15 0 0 0 3.24 5.12 12.18 12.18 0 0 0 5 3.11 55 55 0 0 0 12 2.49l-.62 1.15a13.28 13.28 0 0 0-4.28-2.89 25.75 25.75 0 0 1-2.46-1.41 11.83 11.83 0 0 1-2.17-1.95 12.92 12.92 0 0 1-2.72-5.08 12.46 12.46 0 0 1-.24-5.76l.12-.63.64.08a19.07 19.07 0 0 1 5.78 1.79c1.8.87 3.48 1.91 5.15 2.92s3.29 2.05 5 2.89a27.68 27.68 0 0 0 5.41 2 24.28 24.28 0 0 1 5.54 2.13 18.52 18.52 0 0 1 4.66 3.68 25.71 25.71 0 0 1 5.72 10.1 26.62 26.62 0 0 0-6.19-9.74 19.38 19.38 0 0 0-4.63-3.38A23.61 23.61 0 0 0 257 343a29.84 29.84 0 0 1-5.64-1.87 53.9 53.9 0 0 1-5.19-2.83c-3.32-2-6.7-4-10.42-4.44l.76-.55a11.14 11.14 0 0 0 .26 5.1 11.62 11.62 0 0 0 2.46 4.49 11.85 11.85 0 0 0 1.9 1.71 21.83 21.83 0 0 0 2.29 1.33 14.55 14.55 0 0 1 4.69 3.3l1.12 1.34-1.74-.19a56.06 56.06 0 0 1-12.28-2.69 12.58 12.58 0 0 1-5.4-3.54 25.51 25.51 0 0 1-3.25-5.44 95.83 95.83 0 0 1-4.8-11.52c-.67-2-1.23-4-2.06-5.84a13.21 13.21 0 0 0-1.49-2.68 2.2 2.2 0 0 0-1.23-.82 1.41 1.41 0 0 0-1.42.4Z"/>
    <path fill="#0a2a6b" d="M218.05 305.65a6.58 6.58 0 0 1 3.16 3.54c.67 1.47 1.23 2.94 1.83 4.41l3.54 8.84a85.63 85.63 0 0 0 3.78 8.57c.8 1.36 1.59 2.71 2.47 4a11.46 11.46 0 0 0 3.2 3.34l-.05.14a9.51 9.51 0 0 1-3.88-2.9 32.65 32.65 0 0 1-2.92-3.84c-1.89-2.75-2.76-5.89-3.78-8.87l-3.08-9c-.52-1.5-1-3-1.54-4.49a6.27 6.27 0 0 0-2.79-3.6Zm5.06-4.97a31.15 31.15 0 0 1 5.27 9.28 73.39 73.39 0 0 0 4.33 9.64 102.81 102.81 0 0 0 5.82 8.79 52.78 52.78 0 0 0 6.67 8.17l-.09.12a21 21 0 0 1-4.23-3.34 45.32 45.32 0 0 1-3.55-4 53.29 53.29 0 0 1-5.68-9.12 75 75 0 0 1-4-9.95 31 31 0 0 0-4.68-9.44Zm52.21 74.05-.07 11.88-.17 11.87c-.11 7.91-.32 15.83-.38 23.74s-.17 15.81-.2 23.73v11.87c0 4 0 7.91.08 11.87-.39-3.94-.59-7.9-.82-11.85s-.3-7.92-.42-11.88c-.22-7.92-.21-15.84-.14-23.77s.36-15.83.72-23.74l.59-11.87c.26-3.95.49-7.9.81-11.85Zm109.46-67.79-5.58-3.81-43.7 43.83-17.07-40.1-6.13 3.44 20.58 50.75 51.9-54.11z"/>
    <g fill="#55a3f3" opacity=".4">
      <path d="M302.17 182.57c2.2 0 4.4 0 6.6-.09s4.38-.29 6.56-.57a84.14 84.14 0 0 0 12.87-2.62 81 81 0 0 0 12.3-4.55 33.92 33.92 0 0 0 10.64-7.36l1.62-1.76-.84 2.23a10 10 0 0 0-.82 3.94 4.06 4.06 0 0 0 1.66 3.28 5 5 0 0 0 3.78.42 24.09 24.09 0 0 0 3.94-1.34 30.52 30.52 0 0 0 7.13-4.36 31 31 0 0 0 5.69-6.19 29 29 0 0 1-12.56 11.14 24 24 0 0 1-4 1.49 5.74 5.74 0 0 1-4.41-.44 5 5 0 0 1-2.09-4 10.88 10.88 0 0 1 .84-4.3l.78.47a33.1 33.1 0 0 1-10.92 7.61 81.54 81.54 0 0 1-12.48 4.51 79.23 79.23 0 0 1-13 2.34 76.81 76.81 0 0 1-13.29.15Zm74.73-17.16a58.16 58.16 0 0 0-4.11 12.1 23.85 23.85 0 0 0 .59 12.44 16.69 16.69 0 0 0 3 5.43 21.62 21.62 0 0 0 4.73 4.11 25.52 25.52 0 0 0 5.72 2.74 16.42 16.42 0 0 0 6.24 1.12 15.59 15.59 0 0 1-6.39-.65 25.79 25.79 0 0 1-6-2.56 18.54 18.54 0 0 1-8.3-9.86 23.89 23.89 0 0 1-.4-12.93 39.48 39.48 0 0 1 2-6.15c.93-1.98 1.87-3.91 2.92-5.79Z"/>
      <path d="M383.37 172.08a19.74 19.74 0 0 0-.8 3.18 16.59 16.59 0 0 0 1 9.43 14.36 14.36 0 0 0 3.78 5.07 12.85 12.85 0 0 0 2.67 1.79 13.29 13.29 0 0 0 3.05 1.14 10.57 10.57 0 0 1-3.26-.7 13 13 0 0 1-2.94-1.63 13.19 13.19 0 0 1-4.22-5.27 14.31 14.31 0 0 1-1.15-6.63 14.82 14.82 0 0 1 1.87-6.38Zm-35.16-14.16c-.5.58-1 1.16-1.51 1.73l-1.7 1.59-1.81 1.43-1.88 1.33a30.05 30.05 0 0 1-17.71 4.31l-2.29-.26-2.27-.44-2.2-.65q-1.08-.4-2.13-.84c.74.19 1.47.38 2.2.59l2.23.42 2.24.29 2.26.13a34.91 34.91 0 0 0 17.29-4.22 33.56 33.56 0 0 0 7.28-5.41Z"/>
    </g>
    <path fill="#0a2a6b" d="m221 435.41-21.45-76.17-17.78 70.26 2.83 10.24a64.26 64.26 0 0 0 36.4-4.33Z"/>
    <path fill="#ff8775" d="M234.1 482 221 435.41a64.26 64.26 0 0 1-36.38 4.33l11.7 42.26Z"/>
    <path fill="#0a2a6b" d="m146.43 331.54-37.76-13.45S54.38 347.86 49.19 373s16.36 109 16.36 109H212s-22-48.07-22-59.79 16-54.83 8.78-64.19-52.62-34.5-52.62-34.5Z"/>
    <path fill="#ff8775" d="M146.43 331.54a40.83 40.83 0 0 1-37.76-13.45 98.53 98.53 0 0 0 2-22.66 33.87 33.87 0 0 0-1.6-10.51 41 41 0 0 0-3.27-6.48L95.67 261a39.45 39.45 0 0 1-4.6-9.93c-1.78-7 .43-14.46 3.34-21.12C100 217 108.72 205 121 198.17s28.64-7.32 39.9 1.11c4.41 3.3 10.32 6.46 11.51 11.84 2.85 12.76 5.69 25.56 6.89 38.57s.71 26.33-3 38.86c-1.69 5.65-4.21 11.35-8.85 15a26.83 26.83 0 0 1-10.89 4.67c-3.37.76-6.91 1.2-10.23.28-.33 7.31-.22 15.72.1 23.04Z"/>
    <path fill="#0a2a6b" d="M86.11 210.1a26.32 26.32 0 0 0-9.17 8.23c-9.26 12.85-9.24 31-2.11 45.15s21.26 27.2 35.91 33.23a96.14 96.14 0 0 0-2.69-23.31 19.32 19.32 0 0 0 9.9-6c-3.8-14.55-7.73-28.85-11.53-43.39 8.54 2.11 17.89.56 26.06-2.73s15.41-8.52 22-14.4a15.8 15.8 0 0 0 7.81 8.41 26.22 26.22 0 0 0 11.37 2.66c.45 2.29.84 4.57 1.29 6.86 6.86-4.29 13-12 12-20a21.61 21.61 0 0 0-1.75-6.08A34.47 34.47 0 0 0 169.46 182a50.81 50.81 0 0 0-13.19-4.29 100.7 100.7 0 0 0-45.93 1.44 42 42 0 0 0-13.41 5.73c-7.82 5.47-12.04 15.74-10.82 25.22Z"/>
    <path fill="#ff8775" d="M92.51 269.67a26.91 26.91 0 0 0 10.18 14.45 11.6 11.6 0 0 0 4.8 2.18c3.72.52 6.57-2.53 7.14-6.27s-.68-7.95-2.35-11.84c-2.15-5-5.66-10.38-10.48-11.86-7.75-2.33-11.21 6.32-9.29 13.34Z"/>
    <path fill="#ff8775" d="M111.11 281.71a12.06 12.06 0 0 1-4.6-3.21 2.7 2.7 0 0 1-.63-1 1.91 1.91 0 0 1 .59-1.74l2.34-2.82a1.19 1.19 0 0 0 .35-.65 1.83 1.83 0 0 0-.22-.92c-1.6-3.87-3.43-8-6.77-10.48a6 6 0 0 0-2.9-1.25 3.81 3.81 0 0 0-3.47 1.87 12 12 0 0 0-1.43 4.07s.4 8.08 6.31 13.31 10.43 2.82 10.43 2.82Z" style="mix-blend-mode:multiply"/>
    <path fill="#0a2a6b" d="M94.37 265.6a10.16 10.16 0 0 1 1.42-4.68 4.45 4.45 0 0 1 2.08-1.6 4.23 4.23 0 0 1 2.7 0c3.33 1.28 5.41 4.19 6.94 7 .75 1.46 1.39 3 2 4.45a3.35 3.35 0 0 1 .36 1.46 1.63 1.63 0 0 1-.38.91l-.41.48c-.52.61-1 1.2-1.59 1.8s-1.14 1.17-1.15 1.65.54 1.13 1 1.7a12.62 12.62 0 0 0 3.75 2.86 11.41 11.41 0 0 1-4.26-2.33 9.21 9.21 0 0 1-.9-.87 2.19 2.19 0 0 1-.62-1.36 2.36 2.36 0 0 1 .49-1.42c.26-.37.5-.65.74-1 .49-.64 1-1.27 1.48-1.9l.36-.44c.08-.13.08-.16.08-.19a3.59 3.59 0 0 0-.31-.82c-.63-1.47-1.26-2.92-2-4.3a19.73 19.73 0 0 0-2.52-3.86 10 10 0 0 0-3.48-2.77 3.18 3.18 0 0 0-2-.2 3.55 3.55 0 0 0-1.79 1.11 11.15 11.15 0 0 0-1.99 4.32Zm64.06-27.33c.77 2.45 1.41 4.92 2 7.4s1.15 5 1.66 7.47l.73 3.74a9.53 9.53 0 0 0 1.1 3.24 7.84 7.84 0 0 0 2.43 2.32 29.56 29.56 0 0 0 3.27 1.7l.75.36-.33.68a15.88 15.88 0 0 1-7.4 7.16 24.85 24.85 0 0 0 3.53-3.58 16.67 16.67 0 0 0 2.44-4.21l.42 1a22 22 0 0 1-3.62-1.58 8.87 8.87 0 0 1-3.14-2.82 10.33 10.33 0 0 1-1.39-3.93l-.65-3.78c-.4-2.51-.77-5-1.08-7.57s-.57-5.04-.72-7.6Zm-13.02 13.13c0 2.5-1.22 4.53-2.73 4.53s-2.74-2-2.74-4.53 1.23-4.52 2.74-4.52 2.73 2.02 2.73 4.52Zm28.71-3.51c0 2.5-1.22 4.52-2.73 4.52s-2.73-2-2.73-4.52 1.22-4.53 2.73-4.53 2.73 2.03 2.73 4.53Zm-48.42-4.35a25.94 25.94 0 0 1 2.63-6.49 22.12 22.12 0 0 1 4.56-5.59 29 29 0 0 1 2.94-2.31 10.15 10.15 0 0 1 3.46-1.45 11.71 11.71 0 0 1 3.78-.2 8.35 8.35 0 0 1 3.58 1.16v.4l-3.23 1.23c-1 .41-2 .81-2.89 1.22s-1.87.8-2.83 1.16a14.07 14.07 0 0 0-2.83 1.34 24.2 24.2 0 0 0-4.88 4.21 29.49 29.49 0 0 0-3.88 5.47Zm51.92-6.22a19.19 19.19 0 0 0-4.23-3.89 21.45 21.45 0 0 0-4.94-2.5 14.4 14.4 0 0 0-2.67-.63 18.33 18.33 0 0 1-2.63-.64 42.83 42.83 0 0 1-5.49-2.13v-.4a10.11 10.11 0 0 1 6.26-1.4c2.16.09 4.09 1.26 5.91 2.29a20 20 0 0 1 4.92 3.91 17.57 17.57 0 0 1 3.24 5.19Zm-14.17 46.87c3.48-.62 6.49 0 6.73 1.31.2 1.11-1.56 2.38-4.14 3.14a12.8 12.8 0 0 0-7.4-2.62 11.91 11.91 0 0 1 4.81-1.83Z"/>
    <path fill="#ff4648" d="M158.64 286a12.8 12.8 0 0 1 7.4 2.62 14.17 14.17 0 0 1-1.73.4c-3.47.62-6.48 0-6.72-1.31-.1-.53.3-1.14 1.05-1.71Z"/>
    <path fill="#ff8775" d="m106.24 405.51 16.08 16.7s13.12-96.69 12.86-104.43-5.51-26.29-1.32-27 12.49 17.69 12.49 17.69 53.26-9.52 57.45-8.7-2.1 5.36-8 7.45a99.11 99.11 0 0 1-11.16 3.2 13.76 13.76 0 0 1 2.4 4.7 18.28 18.28 0 0 1 0 4.75 18.09 18.09 0 0 1 0 5.13 13.7 13.7 0 0 1-1.57 3.1s.45 3.56-.35 4.74a8.11 8.11 0 0 1-3.27 2.72c-5.69 6.12-12.71.75-12.71.75l-4.39-.11-13.23-.32s-1.81 66.32-2.71 86.31-6.91 51.84-6.91 51.84L90.43 443.7s3.08-14.12 7.59-24.64 8.22-13.55 8.22-13.55Z"/>
    <path fill="#0a2a6b" d="M133.74 332.43c0-3.62.15-7.23.23-10.84 0-1.82.09-3.6 0-5.4s-.17-3.59-.33-5.38c-.33-3.58-.78-7.16-1.12-10.77a106.61 106.61 0 0 1-.62-10.89v-.56l.54-.14a7.35 7.35 0 0 1 7 1.93 10.7 10.7 0 0 1 2 3 23.27 23.27 0 0 1 1.26 3.29 9.74 9.74 0 0 1 .38 3.61 8.91 8.91 0 0 0 0 3.17 9.9 9.9 0 0 0 1.39 2.85 12.57 12.57 0 0 0 2.14 2.41l-.48-.12 12-2.2c4-.68 8-1.41 12.06-2-4 1-7.94 1.85-11.91 2.77l-11.93 2.62-.27.06-.22-.18a12.06 12.06 0 0 1-4.06-5.84 10 10 0 0 1-.05-3.6 8.29 8.29 0 0 0-.37-3.12 20.92 20.92 0 0 0-1.21-3.06 9.12 9.12 0 0 0-1.75-2.61 6.1 6.1 0 0 0-5.59-1.56l.55-.7a104.83 104.83 0 0 0 .49 10.76l.5 5.39c.15 1.8.27 3.61.38 5.42a76.12 76.12 0 0 1-.12 10.89c-.29 3.59-.55 7.2-.89 10.8Zm50.86-21.99a28.87 28.87 0 0 1-3.91 1.46c-1.33.42-2.67.75-4 1.06s-2.71.55-4.08.74a28.72 28.72 0 0 1-4.17.32 29.93 29.93 0 0 1 3.92-1.47c1.32-.41 2.66-.74 4-1.05s2.7-.55 4.07-.73a30.45 30.45 0 0 1 4.17-.33Zm-15.16 10.23a32.92 32.92 0 0 1 4.36-.77c1.46-.19 2.92-.29 4.38-.37s2.93-.08 4.4 0a33.12 33.12 0 0 1 4.42.39 31.67 31.67 0 0 1-4.36.78c-1.46.19-2.92.28-4.39.36s-2.93.09-4.39 0a31.54 31.54 0 0 1-4.42-.39Zm.76 7.1a17.12 17.12 0 0 1 3.8-.77 29.12 29.12 0 0 1 3.85-.09 37.67 37.67 0 0 1 3.82.36 26.59 26.59 0 0 1 3.78.82 24.07 24.07 0 0 1-3.85.35h-3.81c-1.26 0-2.52-.13-3.79-.24s-2.51-.2-3.8-.43Zm9.1 8.13a16.34 16.34 0 0 1-3 .63 29.05 29.05 0 0 1-6.09.08 16.3 16.3 0 0 1-3.05-.55 16.31 16.31 0 0 1 3-.62 28.41 28.41 0 0 1 3.05-.21 25.76 25.76 0 0 1 3 .13 17 17 0 0 1 3.09.54Zm-57.16 83.52c.09 1.73 0 3.43 0 5.13s-.17 3.39-.28 5.08-.28 3.37-.48 5.06-.42 3.38-.77 5.07a35.46 35.46 0 0 1-.4-5.13c0-1.71 0-3.41.15-5.11s.33-3.4.62-5.09a35.3 35.3 0 0 1 1.16-5.01Z"/>
    <path fill="#55a3f3" d="M107.24 406.77c-3.32-3.78-6.56-7.63-9.79-11.49s-6.38-7.78-9.58-11.67-6.3-7.83-9.78-11.42a50.14 50.14 0 0 0-11.77-9.27 37.48 37.48 0 0 1 6.53 3.81 56.36 56.36 0 0 1 5.78 4.91 136.05 136.05 0 0 1 10 11.34c3.13 3.94 6.3 7.85 9.4 11.81s6.21 7.94 9.21 11.98ZM90.62 443c-.38 1.79-.73 3.58-1 5.38s-.55 3.6-.74 5.41-.31 3.62-.43 5.44-.15 3.63-.14 5.44v1l-.77-.59c-2-1.54-4-3.15-5.94-4.84s-3.81-3.49-5.6-5.24a101.94 101.94 0 0 1-10.1-11.56c3.4 3.8 6.92 7.47 10.65 10.92 1.84 1.74 3.73 3.44 5.67 5.08s3.9 3.25 5.89 4.82l-.76.37c0-1.83.09-3.67.22-5.5s.36-3.65.62-5.47.59-3.62 1-5.4.87-3.56 1.43-5.26ZM195 441l-2.72-9.35-2.63-9.37v-.12c.32-4.88.76-9.76 1.15-14.63s.82-9.75 1.27-14.63l.66-7.31.73-7.3q.72-7.31 1.58-14.6-.41 7.34-.94 14.66l-.52 7.32L193 393c-.39 4.88-.78 9.76-1.24 14.63s-.86 9.74-1.37 14.61v-.12l2.37 9.44Z"/>
    <path fill="#55a3f3" d="M86.55 205.23c6.21 1.83 12.71 1.87 19.12 1.94a96.33 96.33 0 0 0 19.11-1.83 59.69 59.69 0 0 0 17.9-6.63 50.62 50.62 0 0 0 7.81-5.5 43.73 43.73 0 0 0 6.47-7l.71-1 .09 1.2a22.48 22.48 0 0 0 3.09 9.48 29.86 29.86 0 0 0 6.51 7.7 26.45 26.45 0 0 0 18.91 6.1 26 26 0 0 1-19.27-5.61 30.58 30.58 0 0 1-6.81-7.75 22.66 22.66 0 0 1-3.3-9.82l.81.23a46 46 0 0 1-14.51 12.83 60.52 60.52 0 0 1-18.19 6.62 74.2 74.2 0 0 1-9.61 1.3q-4.84.34-9.68.25c-3.23-.05-6.45-.21-9.66-.55a42.89 42.89 0 0 1-9.5-1.96Zm99.51-3.68a16.4 16.4 0 0 1-3.93-.54 20.13 20.13 0 0 1-3.72-1.47 21.32 21.32 0 0 1-6.25-5 26.31 26.31 0 0 1-4.22-6.77 38.89 38.89 0 0 1-1.36-3.74 34 34 0 0 1-.87-3.85c.42 1.24.83 2.49 1.34 3.69a38 38 0 0 0 1.59 3.57 32 32 0 0 0 4.27 6.44 24.3 24.3 0 0 0 5.88 5 20.42 20.42 0 0 0 7.27 2.67Zm-36.63-24.72a23.5 23.5 0 0 1-5.23 5.49 38.32 38.32 0 0 1-6.54 3.93 69 69 0 0 1-14.43 4.84 64 64 0 0 1-7.56 1.06 51.14 51.14 0 0 1-7.63 0 45.19 45.19 0 0 1-7.5-1.36 38.17 38.17 0 0 1-7-2.88 43.57 43.57 0 0 0 7.15 2.41 46.8 46.8 0 0 0 7.44 1.07 62.58 62.58 0 0 0 7.5-.12 64 64 0 0 0 7.43-1.13 72.67 72.67 0 0 0 14.31-4.56 38.27 38.27 0 0 0 6.58-3.62 25.4 25.4 0 0 0 5.48-5.13Zm-52.09 47.96a29.69 29.69 0 0 1 .43 5.81 33.6 33.6 0 0 1-.67 5.83 32 32 0 0 1-12.46 19.39 34.12 34.12 0 0 1-5 3 30.71 30.71 0 0 1-5.47 2 35.27 35.27 0 0 0 5.24-2.46 35 35 0 0 0 16.95-22.16 37.09 37.09 0 0 0 .98-11.41Zm-12.86-5.31a26.42 26.42 0 0 1-14.72 19.12 40.26 40.26 0 0 0 8.88-8.39 39.71 39.71 0 0 0 5.84-10.73Z" opacity=".47"/>
  </g>
</svg>
