<svg xmlns="http://www.w3.org/2000/svg" xmlns:xlink="http://www.w3.org/1999/xlink" viewBox="0 0 154.97 114.91">
  <defs>
    <linearGradient id="a" x1="129.14" x2="154.97" y1="41.3" y2="41.3" gradientUnits="userSpaceOnUse">
      <stop offset="0" stop-color="#2a97ff"/>
      <stop offset="1" stop-color="#2a55ff"/>
    </linearGradient>
    <linearGradient xlink:href="#a" id="b" x1="99.71" x2="127.47" y1="65.75" y2="65.75"/>
    <linearGradient xlink:href="#a" id="c" x1="121.6" x2="136.95" y1="91.08" y2="91.08"/>
    <linearGradient xlink:href="#a" id="d" x1="134.31" x2="153.42" y1="65.55" y2="65.55"/>
    <linearGradient xlink:href="#a" id="e" x1="30.66" x2="65.13" y1="5.49" y2="5.49"/>
    <linearGradient id="f" x2="123.87" y1="65.41" y2="65.41" gradientUnits="userSpaceOnUse">
      <stop offset=".26" stop-color="#2a97ff"/>
      <stop offset=".56" stop-color="#2a7fff"/>
      <stop offset="1" stop-color="#2a55ff"/>
    </linearGradient>
  </defs>
  <rect width="25.83" height="14.4" x="129.14" y="34.1" fill="url(#a)" rx="7.2"/>
  <path fill="url(#b)" d="M121.23 72H106a6.26 6.26 0 0 1-6.24-6.24 6.26 6.26 0 0 1 6.24-6.25h15.28a6.26 6.26 0 0 1 6.24 6.24 6.26 6.26 0 0 1-6.29 6.25Z"/>
  <path fill="url(#c)" d="M131.79 96.24h-5a5.17 5.17 0 0 1-5.16-5.16 5.18 5.18 0 0 1 5.16-5.17h5a5.18 5.18 0 0 1 5.21 5.17 5.17 5.17 0 0 1-5.21 5.16Z"/>
  <path fill="url(#d)" d="M147 72h-6.25a6.45 6.45 0 0 1-6.43-6.44 6.45 6.45 0 0 1 6.43-6.43H147a6.45 6.45 0 0 1 6.43 6.43A6.45 6.45 0 0 1 147 72Z"/>
  <rect width="34.47" height="10.99" x="30.66" fill="url(#e)" rx="4.93"/>
  <path fill="url(#f)" d="M116.29 34.1H89.4a18.85 18.85 0 0 1-11.79-4.19A47.49 47.49 0 0 0 55.13 20v-4.09H40.36V20a47.75 47.75 0 1 0 42.2 79.85 10.07 10.07 0 0 1 7.32-3.22h19a7.39 7.39 0 0 0 0-14.78h-8.34a5.8 5.8 0 0 1-5.72-6.77 48.07 48.07 0 0 0 .65-7.91 47.39 47.39 0 0 0-1.2-10.66 5.9 5.9 0 0 1 5.73-7.25h16.26a7.58 7.58 0 1 0 0-15.16Z"/>
  <path fill="#fff" d="M82.27 62.12a2.62 2.62 0 0 0 1.35-2.85 36.68 36.68 0 0 0-6-13.51 2.62 2.62 0 0 0-3.84-.42 2.63 2.63 0 0 0-.41 3.52 31.3 31.3 0 0 1 5.11 11.5 2.62 2.62 0 0 0 3.79 1.76ZM52.61 98.21a31.93 31.93 0 0 1-6.8.32 31.47 31.47 0 1 1 22.38-55.32 2.63 2.63 0 0 0 3.44 0 2.63 2.63 0 0 0 0-4 36.76 36.76 0 1 0-18.23 64.26 2.66 2.66 0 0 0 2.26-2.62 2.65 2.65 0 0 0-3.05-2.64Z"/>
  <path fill="#fff" d="M45.09 76.59H45a2.61 2.61 0 0 1-1.87-.91l-7.24-8.39a2.65 2.65 0 0 1 4-3.46l5.42 6.28 16.87-15.96A2.65 2.65 0 0 1 65.82 58l-18.9 17.86a2.67 2.67 0 0 1-1.83.73Z"/>
</svg>
